<mxfile host="app.diagrams.net" modified="2022-02-14T15:36:27.214Z" agent="5.0 (Macintosh; Intel Mac OS X 10_15_7) AppleWebKit/537.36 (KHTML, like Gecko) Chrome/98.0.4758.80 Safari/537.36" etag="AkFRfrg99FPvwGfT0QwS" version="16.3.0" type="github">
  <diagram id="jk_vja2Ay0A6Vqk1h5BX" name="第 1 页">
    <mxGraphModel dx="1186" dy="682" grid="1" gridSize="10" guides="1" tooltips="1" connect="1" arrows="1" fold="1" page="1" pageScale="1" pageWidth="827" pageHeight="1169" math="0" shadow="0">
      <root>
        <mxCell id="0" />
        <mxCell id="1" parent="0" />
        <mxCell id="caCsXIrya2lTHfCwmMTg-7" style="edgeStyle=orthogonalEdgeStyle;rounded=0;orthogonalLoop=1;jettySize=auto;html=1;exitX=0.5;exitY=1;exitDx=0;exitDy=0;entryX=0.5;entryY=0;entryDx=0;entryDy=0;" edge="1" parent="1" source="caCsXIrya2lTHfCwmMTg-1" target="caCsXIrya2lTHfCwmMTg-6">
          <mxGeometry relative="1" as="geometry" />
        </mxCell>
        <mxCell id="caCsXIrya2lTHfCwmMTg-1" value="nginx" style="rounded=0;whiteSpace=wrap;html=1;" vertex="1" parent="1">
          <mxGeometry x="354" y="100" width="120" height="60" as="geometry" />
        </mxCell>
        <mxCell id="caCsXIrya2lTHfCwmMTg-4" value="" style="endArrow=classic;html=1;rounded=0;entryX=0.5;entryY=0;entryDx=0;entryDy=0;" edge="1" parent="1" target="caCsXIrya2lTHfCwmMTg-1">
          <mxGeometry width="50" height="50" relative="1" as="geometry">
            <mxPoint x="414" y="20" as="sourcePoint" />
            <mxPoint x="290" y="230" as="targetPoint" />
          </mxGeometry>
        </mxCell>
        <mxCell id="caCsXIrya2lTHfCwmMTg-5" value="用户请求" style="edgeLabel;html=1;align=center;verticalAlign=middle;resizable=0;points=[];" vertex="1" connectable="0" parent="caCsXIrya2lTHfCwmMTg-4">
          <mxGeometry x="-0.55" y="3" relative="1" as="geometry">
            <mxPoint as="offset" />
          </mxGeometry>
        </mxCell>
        <mxCell id="caCsXIrya2lTHfCwmMTg-9" value="" style="edgeStyle=orthogonalEdgeStyle;rounded=0;orthogonalLoop=1;jettySize=auto;html=1;entryX=0.5;entryY=0;entryDx=0;entryDy=0;" edge="1" parent="1" source="caCsXIrya2lTHfCwmMTg-6" target="caCsXIrya2lTHfCwmMTg-10">
          <mxGeometry relative="1" as="geometry">
            <mxPoint x="414" y="370" as="targetPoint" />
          </mxGeometry>
        </mxCell>
        <mxCell id="caCsXIrya2lTHfCwmMTg-6" value="项目A" style="rounded=0;whiteSpace=wrap;html=1;" vertex="1" parent="1">
          <mxGeometry x="354" y="230" width="120" height="60" as="geometry" />
        </mxCell>
        <mxCell id="caCsXIrya2lTHfCwmMTg-14" style="edgeStyle=orthogonalEdgeStyle;rounded=0;orthogonalLoop=1;jettySize=auto;html=1;exitX=0.5;exitY=1;exitDx=0;exitDy=0;" edge="1" parent="1" source="caCsXIrya2lTHfCwmMTg-10" target="caCsXIrya2lTHfCwmMTg-11">
          <mxGeometry relative="1" as="geometry" />
        </mxCell>
        <mxCell id="caCsXIrya2lTHfCwmMTg-18" value="Y" style="edgeLabel;html=1;align=center;verticalAlign=middle;resizable=0;points=[];" vertex="1" connectable="0" parent="caCsXIrya2lTHfCwmMTg-14">
          <mxGeometry x="-0.6" y="-2" relative="1" as="geometry">
            <mxPoint as="offset" />
          </mxGeometry>
        </mxCell>
        <mxCell id="caCsXIrya2lTHfCwmMTg-16" value="" style="edgeStyle=orthogonalEdgeStyle;rounded=0;orthogonalLoop=1;jettySize=auto;html=1;" edge="1" parent="1" source="caCsXIrya2lTHfCwmMTg-10" target="caCsXIrya2lTHfCwmMTg-15">
          <mxGeometry relative="1" as="geometry" />
        </mxCell>
        <mxCell id="caCsXIrya2lTHfCwmMTg-17" value="N" style="edgeLabel;html=1;align=center;verticalAlign=middle;resizable=0;points=[];" vertex="1" connectable="0" parent="caCsXIrya2lTHfCwmMTg-16">
          <mxGeometry y="2" relative="1" as="geometry">
            <mxPoint as="offset" />
          </mxGeometry>
        </mxCell>
        <mxCell id="caCsXIrya2lTHfCwmMTg-10" value="路由是否匹配？" style="rhombus;whiteSpace=wrap;html=1;" vertex="1" parent="1">
          <mxGeometry x="374" y="350" width="80" height="80" as="geometry" />
        </mxCell>
        <mxCell id="caCsXIrya2lTHfCwmMTg-20" value="" style="edgeStyle=orthogonalEdgeStyle;rounded=0;orthogonalLoop=1;jettySize=auto;html=1;" edge="1" parent="1" source="caCsXIrya2lTHfCwmMTg-11" target="caCsXIrya2lTHfCwmMTg-19">
          <mxGeometry relative="1" as="geometry" />
        </mxCell>
        <mxCell id="caCsXIrya2lTHfCwmMTg-21" value="Y" style="edgeLabel;html=1;align=center;verticalAlign=middle;resizable=0;points=[];" vertex="1" connectable="0" parent="caCsXIrya2lTHfCwmMTg-20">
          <mxGeometry x="-0.3111" y="1" relative="1" as="geometry">
            <mxPoint as="offset" />
          </mxGeometry>
        </mxCell>
        <mxCell id="caCsXIrya2lTHfCwmMTg-23" value="" style="edgeStyle=orthogonalEdgeStyle;rounded=0;orthogonalLoop=1;jettySize=auto;html=1;" edge="1" parent="1" source="caCsXIrya2lTHfCwmMTg-11" target="caCsXIrya2lTHfCwmMTg-22">
          <mxGeometry relative="1" as="geometry" />
        </mxCell>
        <mxCell id="caCsXIrya2lTHfCwmMTg-24" value="N" style="edgeLabel;html=1;align=center;verticalAlign=middle;resizable=0;points=[];" vertex="1" connectable="0" parent="caCsXIrya2lTHfCwmMTg-23">
          <mxGeometry x="-0.2" y="-1" relative="1" as="geometry">
            <mxPoint as="offset" />
          </mxGeometry>
        </mxCell>
        <mxCell id="caCsXIrya2lTHfCwmMTg-11" value="express项目？" style="rhombus;whiteSpace=wrap;html=1;" vertex="1" parent="1">
          <mxGeometry x="374" y="490" width="80" height="80" as="geometry" />
        </mxCell>
        <mxCell id="caCsXIrya2lTHfCwmMTg-15" value="转发到后端" style="whiteSpace=wrap;html=1;" vertex="1" parent="1">
          <mxGeometry x="514" y="360" width="120" height="60" as="geometry" />
        </mxCell>
        <mxCell id="caCsXIrya2lTHfCwmMTg-19" value="express后端渲染" style="whiteSpace=wrap;html=1;" vertex="1" parent="1">
          <mxGeometry x="354" y="660" width="120" height="60" as="geometry" />
        </mxCell>
        <mxCell id="caCsXIrya2lTHfCwmMTg-22" value="nextJS后端渲染" style="whiteSpace=wrap;html=1;" vertex="1" parent="1">
          <mxGeometry x="514" y="500" width="120" height="60" as="geometry" />
        </mxCell>
      </root>
    </mxGraphModel>
  </diagram>
</mxfile>
